<?xml version="1.0" encoding="iso-8859-1"?>
<!-- Generator: Adobe Illustrator 19.0.0, SVG Export Plug-In . SVG Version: 6.00 Build 0)  -->
<svg version="1.1" id="Capa_1" xmlns="http://www.w3.org/2000/svg" xmlns:xlink="http://www.w3.org/1999/xlink" x="0px" y="0px"
	 viewBox="0 0 512.001 512.001" style="enable-background:new 0 0 512.001 512.001;" xml:space="preserve">
<path style="fill:#CCCCCC;" d="M414.449,239.829v213.678c0,26.409,16.13,40.083,21.335,48.958c1.955,2.713,5.993,2.713,7.948,0
	c5.205-8.876,21.335-22.549,21.335-48.958V239.829C464.03,239.86,415.484,239.86,414.449,239.829z"/>
<path style="fill:#BFBEBE;" d="M439.759,453.507V239.852c-12.396,0-24.792-0.008-25.31-0.023v213.678
	c0,26.409,16.13,40.083,21.334,48.958c1.955,2.713,5.993,2.713,7.948,0c1.887-3.217,5.21-7.071,8.681-11.928
	C446.312,481.997,439.759,470.342,439.759,453.507z"/>
<path style="fill:#E6E6E6;" d="M414.449,426.08c1.472,19.444-4.954,39.907,11.316,62.484l10.02,13.902
	c1.955,2.713,5.993,2.713,7.948,0c5.205-8.876,21.335-22.549,21.335-48.958V426.08H414.449z"/>
<path style="fill:#CCCCCC;" d="M443.733,502.465c0.211-0.36,0.446-0.73,0.691-1.106c0.068-0.104,0.137-0.209,0.207-0.314
	c0.212-0.318,0.434-0.642,0.667-0.973c0.047-0.067,0.091-0.132,0.139-0.199c0.268-0.377,0.551-0.764,0.843-1.158
	c0.128-0.173,0.261-0.351,0.393-0.527c0.158-0.211,0.32-0.425,0.483-0.642c1.58-2.087,3.393-4.399,5.257-7.008
	c-6.101-8.541-12.655-20.195-12.655-37.03V426.08h-25.31c0.46,6.075,0.149,12.251,0,18.558v8.869c0,0.184,0.009,0.362,0.01,0.545
	c0.191,5.205,0.786,10.508,2.279,15.925c0.011,0.039,0.023,0.079,0.034,0.118c0.102,0.366,0.216,0.734,0.326,1.102
	c1.952,6.231,4.764,11.468,7.675,15.936c0.325,0.477,0.645,0.953,0.99,1.431l4.38,6.078c2.288,3.003,4.316,5.569,5.638,7.823v0.001
	c0.733,1.017,1.759,1.653,2.859,1.907c0.733,0.169,1.498,0.169,2.231,0C441.974,504.119,443,503.483,443.733,502.465z"/>
<path style="fill:#666666;" d="M453.752,488.565c3.723-5.167,6.572-10.863,8.483-16.858h-44.953
	c4.299,13.496,11.159,19.799,18.502,30.76c0.988,1.371,2.556,2.166,4.535,2.003C441.624,504.321,444.181,500.998,453.752,488.565z"
	/>
<path style="fill:#595A5B;" d="M440.318,504.469c0.001,0,0.003,0,0.004,0c1.236-0.143,3.611-3.152,12.006-14.053
	c-3.577-5.021-7.287-11.126-9.744-18.708h-25.301c0.247,0.775,0.505,1.521,0.768,2.252c1.796,4.855,4.086,9.069,6.462,12.762
	c0.211,0.321,0.424,0.641,0.639,0.958c0.202,0.295,0.399,0.59,0.613,0.886l3.19,4.427c0.797,1.074,1.61,2.163,2.435,3.28
	c1.77,2.314,3.316,4.358,4.392,6.192c0.001,0.001,0.001,0.002,0.002,0.003c0,0.001,0.001,0.002,0.002,0.002
	c0.166,0.23,0.351,0.435,0.544,0.625c0.041,0.041,0.083,0.08,0.125,0.119c0.193,0.177,0.394,0.341,0.607,0.482
	c0.007,0.004,0.012,0.009,0.019,0.014c0.222,0.145,0.455,0.265,0.694,0.37c0.076,0.033,0.156,0.06,0.235,0.089
	c0.139,0.053,0.28,0.098,0.423,0.137C439.009,504.46,439.637,504.525,440.318,504.469z"/>
<path style="fill:#F9F6ED;" d="M320.383,34.503c-34.57,0-254.821,0-292.909,0c-11.349,0-20.549,9.2-20.549,20.548
	c0,49.458,0,362.272,0,404.534c0,24.232,19.204,44.504,43.433,44.908l290.547,0.006c0-129.369,0-296.247,0-449.475
	C340.905,43.692,331.717,34.503,320.383,34.503z"/>
<path style="fill:#EFECE4;" d="M80.36,504.494c-24.228-0.404-43.433-20.676-43.433-44.908c0-42.263,0-355.076,0-404.534
	c0-11.349,9.201-20.548,20.549-20.548c-13.543,0-24.02,0-30.002,0c-11.349,0-20.549,9.2-20.549,20.548c0,49.458,0,362.272,0,404.534
	c0,24.232,19.204,44.504,43.433,44.908l290.547,0.006v-0.001L80.36,504.494z"/>
<path style="fill:#70B5E8;" d="M233.635,34.503h-21.126V21.002c0-7.456-6.044-13.501-13.501-13.501h-50.185
	c-7.456,0-13.501,6.044-13.501,13.501v13.501h-21.126c-7.425,0-13.501,6.075-13.501,13.501s6.075,13.501,13.501,13.501h119.439
	c7.425,0,13.501-6.075,13.501-13.501S241.061,34.503,233.635,34.503z"/>
<path style="fill:#52A5D8;" d="M131.283,46.358c0.821-6.839,6.87-11.855,13.759-11.855h12.689c4.463,0,8.08-3.618,8.08-8.08v-5.42
	c0-7.456,6.044-13.501,13.501-13.501h-30.489c-7.456,0-13.501,6.044-13.501,13.501v13.501h-20.77
	c-6.888,0-12.938,5.015-13.759,11.855c-0.979,8.152,5.434,15.147,13.402,15.147h30.489
	C136.717,61.505,130.304,54.509,131.283,46.358z"/>
<path style="fill:#EAE4D6;" d="M105.938,460.33c-5.9,0-10.989,4.101-12.286,9.857c-4.428,19.651-21.793,34.314-42.54,34.314h286.412
	c19.657,0,36.278-13.164,41.737-31.262c1.937-6.424-2.831-12.909-9.542-12.909H105.938z"/>
<path style="fill:#E2D9C7;" d="M128.988,470.186c1.297-5.755,6.385-9.857,12.286-9.857h-35.335c-5.899,0-10.989,4.101-12.286,9.857
	c-4.428,19.651-21.793,34.314-42.54,34.314h35.335C107.195,504.501,124.56,489.838,128.988,470.186z"/>
<path style="fill:#666666;" d="M439.759,34.503c-20.755,0-37.58,16.825-37.58,37.58c0,14.743,0,139.031,0,161.251
	c0,6.99,5.667,12.658,12.658,12.658h49.846c6.99,0,12.658-5.667,12.658-12.658c0-11.614,0-122.803,0-161.251
	C477.339,51.328,460.514,34.503,439.759,34.503z"/>
<path style="fill:#595A5B;" d="M439.759,233.334c0-22.219,0-146.508,0-161.251c0-13.908,7.56-26.042,18.79-32.54
	c-5.529-3.199-11.943-5.04-18.79-5.04c-20.755,0-37.58,16.825-37.58,37.58c0,14.743,0,139.031,0,161.251
	c0,6.99,5.667,12.658,12.657,12.658h37.58C445.426,245.993,439.759,240.326,439.759,233.334z"/>
<circle style="fill:#666666;" cx="80.085" cy="301.679" r="15.741"/>
<path style="fill:#4F4D4D;" d="M80.082,301.676c-2.911-5.042-2.702-11.021,0.007-15.729c-2.678-0.004-5.391,0.661-7.877,2.096
	c-7.528,4.347-10.109,13.974-5.761,21.502c4.346,7.528,13.974,10.109,21.502,5.761c2.486-1.435,4.419-3.453,5.754-5.773
	C88.274,309.527,82.993,306.72,80.082,301.676z"/>
<circle style="fill:#666666;" cx="80.085" cy="368.923" r="15.741"/>
<path style="fill:#4F4D4D;" d="M80.082,368.921c-2.911-5.042-2.702-11.021,0.007-15.729c-2.678-0.004-5.391,0.661-7.877,2.096
	c-7.528,4.347-10.109,13.974-5.761,21.502c4.346,7.528,13.974,10.109,21.502,5.761c2.486-1.435,4.419-3.453,5.754-5.773
	C88.274,376.772,82.993,373.965,80.082,368.921z"/>
<path d="M370.294,452.829H348.98V183.687c0-4.142-3.357-7.5-7.5-7.5c-4.143,0-7.5,3.358-7.5,7.5v269.142H106.513
	c-9.458,0-17.519,6.459-19.603,15.708c-3.475,15.417-15.91,27.667-35.541,28.479c-22.966-1.325-36.368-19.046-36.368-37.429V55.051
	c0-7.194,5.854-13.048,13.049-13.048h13.813c4.143,0,7.5-3.358,7.5-7.5s-3.357-7.5-7.5-7.5H28.05C12.583,27.003,0,39.585,0,55.051
	v404.534C0,487.743,22.67,512,51.688,512H338.1c22.658,0,42.317-14.707,48.918-36.596
	C390.398,464.196,382.078,452.829,370.294,452.829z M372.656,471.074C367.979,486.58,354.091,497,338.099,497H87.825
	c6.645-6.697,11.498-15.312,13.719-25.165c0.531-2.358,2.574-4.005,4.969-4.005c276.849,0.648,264.12-1.206,265.755,0.991
	C372.552,469.203,372.979,470.002,372.656,471.074z"/>
<path d="M509.229,87.867L485.25,68.38c-1.891-23.129-21.307-41.378-44.917-41.378c-24.859,0-45.081,20.223-45.081,45.081v161.251
	c0,8.318,5.065,15.472,12.272,18.548c0,14.64,0,193.976,0,201.624c0,29.33,17.564,44.432,22.751,53.346
	c4.932,6.841,15.174,6.853,20.117,0c0-0.001,0-0.001,0.001-0.002c5.293-9.098,22.749-24.06,22.749-53.344
	c0-17.081,0-56.676,0-67.084c0-4.143-3.357-7.5-7.5-7.5s-7.5,3.357-7.5,7.5v32.156h-35.617v-164.23h35.617v97.071
	c0,4.143,3.357,7.5,7.5,7.5s7.5-3.357,7.5-7.5v-99.537c7.206-3.076,12.273-10.231,12.273-18.549V87.844L497,97.258v191.897
	c0,4.143,3.357,7.5,7.5,7.5s7.5-3.357,7.5-7.5V93.689C512,91.43,510.982,89.291,509.229,87.867z M440.334,495.151
	c-6.328-8.925-8.692-11.687-11.083-15.945h22.164C449.014,483.482,446.736,486.12,440.334,495.151z M458.142,433.58
	c-0.241,17.47,0.651,22.184-1.097,30.626h-33.422c-1.74-8.402-0.854-12.974-1.098-30.626H458.142z M470.414,233.334
	c0,2.844-2.314,5.157-5.157,5.157h-49.846c-2.844,0-5.157-2.313-5.157-5.157V72.083c0-16.586,13.494-30.08,30.08-30.08
	c16.587,0,30.081,13.494,30.081,30.08C470.414,92.28,470.414,213.155,470.414,233.334z"/>
<path d="M80.656,324.918c12.815,0,23.241-10.426,23.241-23.24c0-12.816-10.427-23.241-23.241-23.241s-23.24,10.427-23.24,23.241
	C57.415,314.492,67.841,324.918,80.656,324.918z M80.656,293.436c4.544,0,8.241,3.696,8.241,8.24c0,4.543-3.696,8.24-8.241,8.24
	c-4.543,0-8.239-3.696-8.239-8.24C72.416,297.132,76.113,293.436,80.656,293.436z"/>
<path d="M80.656,392.163c12.815,0,23.241-10.426,23.241-23.24s-10.427-23.241-23.241-23.241s-23.24,10.427-23.24,23.241
	C57.415,381.737,67.841,392.163,80.656,392.163z M80.656,360.681c4.544,0,8.241,3.696,8.241,8.241c0,4.543-3.696,8.24-8.241,8.24
	c-4.543,0-8.239-3.696-8.239-8.24C72.416,364.378,76.113,360.681,80.656,360.681z"/>
<path d="M285.739,158.686H132.056c-4.143,0-7.5,3.358-7.5,7.5c0,4.142,3.357,7.5,7.5,7.5h153.683c4.143,0,7.5-3.358,7.5-7.5
	C293.24,162.044,289.882,158.686,285.739,158.686z"/>
<path d="M315.297,61.505c0-4.142-3.357-7.5-7.5-7.5h-22.058c-4.143,0-7.5,3.358-7.5,7.5s3.357,7.5,7.5,7.5h22.058
	C311.94,69.005,315.297,65.647,315.297,61.505z"/>
<path d="M285.739,361.421H132.056c-4.143,0-7.5,3.357-7.5,7.5c0,4.143,3.357,7.5,7.5,7.5h153.683c4.143,0,7.5-3.357,7.5-7.5
	C293.24,364.779,289.882,361.421,285.739,361.421z"/>
<path d="M285.739,293.842H132.056c-4.143,0-7.5,3.357-7.5,7.5c0,4.143,3.357,7.5,7.5,7.5h153.683c4.143,0,7.5-3.357,7.5-7.5
	C293.24,297.2,289.882,293.842,285.739,293.842z"/>
<path d="M285.739,226.265H132.056c-4.143,0-7.5,3.358-7.5,7.5c0,4.142,3.357,7.5,7.5,7.5h153.683c4.143,0,7.5-3.358,7.5-7.5
	C293.24,229.623,289.882,226.265,285.739,226.265z"/>
<path d="M70.355,187.833c2.417,2.795,5.783,2.617,5.683,2.594c2.182-0.003,4.254-0.956,5.676-2.609l25.943-30.162
	c2.701-3.14,2.346-7.876-0.795-10.578c-3.14-2.699-7.875-2.346-10.577,0.795l-20.272,23.568l-5.423-6.271
	c-2.709-3.134-7.445-3.477-10.58-0.767c-3.133,2.71-3.477,7.446-0.767,10.58L70.355,187.833z"/>
<path d="M76.028,257.673c0.101-0.022,3.308,0.155,5.686-2.61l25.943-30.161c2.701-3.14,2.346-7.875-0.795-10.578
	c-3.14-2.7-7.875-2.346-10.577,0.795l-20.272,23.567l-5.423-6.271c-2.709-3.133-7.445-3.476-10.58-0.767
	c-3.133,2.71-3.477,7.446-0.767,10.58C69.387,252.954,70.394,257.673,76.028,257.673z"/>
<path d="M76.865,42.004h17.789c-4.037,13.509,6.152,27.002,20.117,27.002H234.21c13.992,0,24.147-13.514,20.117-27.002h66.632
	c7.18,0,13.022,5.841,13.022,13.022v93.66c0,4.142,3.357,7.5,7.5,7.5c4.143,0,7.5-3.358,7.5-7.5v-93.66
	c0-15.452-12.571-28.023-28.023-28.023c-15.186,0-85.241,0-100.374,0v-6c0-11.581-9.422-21.001-21.001-21.001h-50.185
	c-11.58,0-21.001,9.421-21.001,21.001v6c-16.124,0-36.306,0-51.531,0c-4.143,0-7.5,3.358-7.5,7.5
	C69.366,38.645,72.722,42.004,76.865,42.004z M114.771,42.004h21.126c4.143,0,7.5-3.358,7.5-7.5V21.002c0-3.309,2.691-6,6-6h50.185
	c3.309,0,6,2.691,6,6v13.501c0,4.142,3.357,7.5,7.5,7.5h21.126c3.309,0,6,2.691,6,6s-2.691,6-6,6H114.771c-3.309,0-6-2.691-6-6
	S111.462,42.004,114.771,42.004z"/>
<g>
</g>
<g>
</g>
<g>
</g>
<g>
</g>
<g>
</g>
<g>
</g>
<g>
</g>
<g>
</g>
<g>
</g>
<g>
</g>
<g>
</g>
<g>
</g>
<g>
</g>
<g>
</g>
<g>
</g>
</svg>
