<?xml version="1.0" encoding="UTF-8" standalone="no"?>
<!-- Generator: Adobe Illustrator 19.1.0, SVG Export Plug-In . SVG Version: 6.00 Build 0)  -->

<svg
   xmlns:dc="http://purl.org/dc/elements/1.1/"
   xmlns:cc="http://creativecommons.org/ns#"
   xmlns:rdf="http://www.w3.org/1999/02/22-rdf-syntax-ns#"
   xmlns:svg="http://www.w3.org/2000/svg"
   xmlns="http://www.w3.org/2000/svg"
   xmlns:sodipodi="http://sodipodi.sourceforge.net/DTD/sodipodi-0.dtd"
   xmlns:inkscape="http://www.inkscape.org/namespaces/inkscape"
   version="1.1"
   id="Capa_1"
   x="0px"
   y="0px"
   viewBox="0 0 452.84 452.84"
   style="enable-background:new 0 0 452.84 452.84;"
   xml:space="preserve"
   inkscape:version="0.48.5 r10040"
   width="100%"
   height="100%"
   sodipodi:docname="email.svg"><metadata
     id="metadata61"><rdf:RDF><cc:Work
         rdf:about=""><dc:format>image/svg+xml</dc:format><dc:type
           rdf:resource="http://purl.org/dc/dcmitype/StillImage" /></cc:Work></rdf:RDF></metadata><defs
     id="defs59" /><sodipodi:namedview
     pagecolor="#ffffff"
     bordercolor="#666666"
     borderopacity="1"
     objecttolerance="10"
     gridtolerance="10"
     guidetolerance="10"
     inkscape:pageopacity="0"
     inkscape:pageshadow="2"
     inkscape:window-width="1360"
     inkscape:window-height="720"
     id="namedview57"
     showgrid="false"
     inkscape:zoom="0.18425625"
     inkscape:cx="-1302.21"
     inkscape:cy="844.79602"
     inkscape:window-x="0"
     inkscape:window-y="0"
     inkscape:window-maximized="1"
     inkscape:current-layer="Capa_1" /><path
     inkscape:connector-curvature="0"
     id="path5"
     d="m 452.84,196.65 v 232.26 c 0,4.14 -3.36,7.5 -7.5,7.5 H 7.5 c -4.14,0 -7.5,-3.36 -7.5,-7.5 V 196.65 c 0,-2.61 1.33,-4.91 3.36,-6.25 L 61.17,152.07 V 23.93 c 0,-4.14 3.36,-7.5 7.5,-7.5 h 315.49 c 4.14,0 7.5,3.36 7.5,7.5 v 128.13 l 57.82,38.34 c 2.02,1.34 3.36,3.64 3.36,6.25 z m -15,218.29 V 209.12 L 265.36,300.61 437.84,414.94 z M 391.66,189.15 h 28.79 l -28.79,-19.09 v 19.09 z M 32.38,421.41 H 420.45 L 226.42,292.79 32.38,421.41 z m 359.28,-204.77 23.53,-12.49 h -23.53 v 12.49 z m -15,7.95 V 31.43 H 76.17 v 193.16 l 125.53,66.59 20.57,-13.64 c 2.51,-1.66 5.78,-1.66 8.29,0 l 20.57,13.64 125.53,-66.59 z M 15,414.94 187.47,300.61 15,209.12 V 414.94 z M 61.17,216.63 V 204.15 H 37.64 l 23.53,12.48 z m 0,-27.48 v -19.08 l -28.78,19.08 h 28.78 z" /><polygon
     id="polygon7"
     points="265.36,300.61 437.84,209.12 437.84,414.94 "
     style="fill:#963df2;fill-opacity:1" /><polygon
     id="polygon9"
     points="391.66,170.06 420.45,189.15 391.66,189.15 "
     style="fill:#f2963d;fill-opacity:1" /><polygon
     id="polygon11"
     points="226.42,292.79 420.45,421.41 32.38,421.41 "
     style="fill:#963df2;fill-opacity:1" /><polygon
     id="polygon13"
     points="391.66,204.15 415.19,204.15 391.66,216.64 "
     style="fill:#963df2;fill-opacity:1" /><path
     inkscape:connector-curvature="0"
     id="path15"
     d="m 376.66,31.43 v 193.16 l -125.53,66.59 -20.57,-13.64 c -2.51,-1.66 -5.78,-1.66 -8.29,0 L 201.7,291.18 76.17,224.59 V 31.43 h 300.49 z m -82.99,118.31 v -5.54 c 0,-37.08 -30.17,-67.25 -67.26,-67.25 -37.08,0 -67.25,30.17 -67.25,67.25 v 2.22 c 0,37.08 30.17,67.25 67.25,67.25 h 59.76 c 4.14,0 7.5,-3.36 7.5,-7.5 0,-4.14 -3.36,-7.5 -7.5,-7.5 h -59.76 c -28.81,0 -52.25,-23.44 -52.25,-52.25 v -2.22 c 0,-28.81 23.44,-52.25 52.25,-52.25 28.82,0 52.26,23.44 52.26,52.25 v 5.54 c 0,6.23 -5.08,11.31 -11.31,11.31 -6.24,0 -11.32,-5.08 -11.32,-11.31 v -10.51 c 0,-17.87 -14.53,-32.4 -32.39,-32.4 -17.87,0 -32.4,14.53 -32.4,32.4 0,17.86 14.53,32.39 32.4,32.39 8.17,0 15.63,-3.04 21.34,-8.05 4.64,7.48 12.93,12.48 22.37,12.48 14.5,0 26.31,-11.8 26.31,-26.31 z"
     style="fill:#ffffff" /><path
     inkscape:connector-curvature="0"
     id="path17"
     d="m 293.67,144.2 v 5.54 c 0,14.51 -11.81,26.31 -26.31,26.31 -9.44,0 -17.73,-5 -22.37,-12.48 -5.71,5.01 -13.17,8.05 -21.34,8.05 -17.87,0 -32.4,-14.53 -32.4,-32.39 0,-17.87 14.53,-32.4 32.4,-32.4 17.86,0 32.39,14.53 32.39,32.4 v 10.51 c 0,6.23 5.08,11.31 11.32,11.31 6.23,0 11.31,-5.08 11.31,-11.31 v -5.54 c 0,-28.81 -23.44,-52.25 -52.26,-52.25 -28.81,0 -52.25,23.44 -52.25,52.25 v 2.22 c 0,28.81 23.44,52.25 52.25,52.25 h 59.76 c 4.14,0 7.5,3.36 7.5,7.5 0,4.14 -3.36,7.5 -7.5,7.5 h -59.76 c -37.08,0 -67.25,-30.17 -67.25,-67.25 v -2.22 c 0,-37.08 30.17,-67.25 67.25,-67.25 37.09,0 67.26,30.17 67.26,67.25 z m -52.63,-4.97 c 0,-9.6 -7.8,-17.4 -17.39,-17.4 -9.6,0 -17.4,7.8 -17.4,17.4 0,9.59 7.8,17.39 17.4,17.39 9.59,0 17.39,-7.8 17.39,-17.39 z"
     style="stroke:none;stroke-opacity:1;fill:#f2963d;fill-opacity:1" /><path
     inkscape:connector-curvature="0"
     id="path19"
     d="m 223.65,121.83 c 9.59,0 17.39,7.8 17.39,17.4 0,9.59 -7.8,17.39 -17.39,17.39 -9.6,0 -17.4,-7.8 -17.4,-17.39 0,-9.6 7.8,-17.4 17.4,-17.4 z"
     style="fill:#ffffff" /><polygon
     id="polygon21"
     points="15,209.12 187.47,300.61 15,414.94 "
     style="fill:#963df2;fill-opacity:1" /><polygon
     id="polygon23"
     points="37.64,204.15 61.17,204.15 61.17,216.63 "
     style="fill:#963df2;fill-opacity:1" /><polygon
     id="polygon25"
     points="32.39,189.15 61.17,170.07 61.17,189.15 "
     style="fill:#f2963d;fill-opacity:1" /><g
     id="g27" /><g
     id="g29" /><g
     id="g31" /><g
     id="g33" /><g
     id="g35" /><g
     id="g37" /><g
     id="g39" /><g
     id="g41" /><g
     id="g43" /><g
     id="g45" /><g
     id="g47" /><g
     id="g49" /><g
     id="g51" /><g
     id="g53" /><g
     id="g55" /></svg>